<mxfile host="Electron" modified="2025-05-26T08:44:36.118Z" agent="Mozilla/5.0 (X11; Linux x86_64) AppleWebKit/537.36 (KHTML, like Gecko) draw.io/22.1.2 Chrome/114.0.5735.289 Electron/25.9.4 Safari/537.36" etag="vyv1HdFlvVE_0_3E74Pi" version="22.1.2" type="device">
  <diagram name="Page-1" id="CM_rktC3kWUnCZqIV6ZL">
    <mxGraphModel dx="814" dy="511" grid="1" gridSize="10" guides="1" tooltips="1" connect="1" arrows="1" fold="1" page="1" pageScale="1" pageWidth="827" pageHeight="1169" math="1" shadow="0">
      <root>
        <mxCell id="0" />
        <mxCell id="1" parent="0" />
        <mxCell id="mXX0Gu69CXFKaSW1H1Vy-16" style="orthogonalLoop=1;jettySize=auto;html=1;strokeWidth=14;endArrow=none;endFill=0;fillColor=#dae8fc;strokeColor=#0079C1;shadow=0;" parent="1" edge="1">
          <mxGeometry relative="1" as="geometry">
            <mxPoint x="63" y="180" as="sourcePoint" />
            <mxPoint x="783" y="180" as="targetPoint" />
          </mxGeometry>
        </mxCell>
        <mxCell id="mXX0Gu69CXFKaSW1H1Vy-11" style="orthogonalLoop=1;jettySize=auto;html=1;strokeWidth=14;endArrow=none;endFill=0;fillColor=#f8cecc;strokeColor=#e31819;shadow=0;" parent="1" edge="1">
          <mxGeometry relative="1" as="geometry">
            <mxPoint x="53" y="140" as="sourcePoint" />
            <mxPoint x="773" y="140" as="targetPoint" />
          </mxGeometry>
        </mxCell>
        <mxCell id="mXX0Gu69CXFKaSW1H1Vy-10" value="&lt;font style=&quot;font-size: 23px;&quot;&gt;14&lt;/font&gt;" style="ellipse;whiteSpace=wrap;html=1;aspect=fixed;" parent="1" vertex="1">
          <mxGeometry x="14" y="120" width="80" height="80" as="geometry" />
        </mxCell>
        <mxCell id="mXX0Gu69CXFKaSW1H1Vy-1" value="&lt;font style=&quot;font-size: 23px;&quot;&gt;13&lt;/font&gt;" style="ellipse;whiteSpace=wrap;html=1;aspect=fixed;" parent="1" vertex="1">
          <mxGeometry x="253" y="120" width="80" height="80" as="geometry" />
        </mxCell>
        <mxCell id="mXX0Gu69CXFKaSW1H1Vy-2" value="&lt;font style=&quot;font-size: 23px;&quot;&gt;12&lt;/font&gt;" style="ellipse;whiteSpace=wrap;html=1;aspect=fixed;" parent="1" vertex="1">
          <mxGeometry x="493" y="120" width="80" height="80" as="geometry" />
        </mxCell>
        <mxCell id="mXX0Gu69CXFKaSW1H1Vy-15" value="&lt;font style=&quot;font-size: 23px;&quot;&gt;11A&lt;/font&gt;" style="ellipse;whiteSpace=wrap;html=1;aspect=fixed;" parent="1" vertex="1">
          <mxGeometry x="733" y="120" width="80" height="80" as="geometry" />
        </mxCell>
        <mxCell id="mXX0Gu69CXFKaSW1H1Vy-20" value="&lt;font style=&quot;font-size: 15px;&quot;&gt;Motorway junction&lt;/font&gt;" style="text;html=1;strokeColor=none;fillColor=none;align=center;verticalAlign=middle;whiteSpace=wrap;rounded=0;" parent="1" vertex="1">
          <mxGeometry x="193" y="230" width="80" height="50" as="geometry" />
        </mxCell>
        <mxCell id="mXX0Gu69CXFKaSW1H1Vy-22" value="" style="endArrow=oval;html=1;rounded=0;endFill=1;exitX=0.5;exitY=0;exitDx=0;exitDy=0;" parent="1" source="mXX0Gu69CXFKaSW1H1Vy-20" edge="1">
          <mxGeometry width="50" height="50" relative="1" as="geometry">
            <mxPoint x="213" y="250" as="sourcePoint" />
            <mxPoint x="263" y="200" as="targetPoint" />
          </mxGeometry>
        </mxCell>
        <mxCell id="mXX0Gu69CXFKaSW1H1Vy-23" value="&lt;font style=&quot;font-size: 15px;&quot;&gt;Motorway&lt;/font&gt;" style="text;html=1;strokeColor=none;fillColor=none;align=center;verticalAlign=middle;whiteSpace=wrap;rounded=0;" parent="1" vertex="1">
          <mxGeometry x="443" y="235" width="80" height="25" as="geometry" />
        </mxCell>
        <mxCell id="mXX0Gu69CXFKaSW1H1Vy-24" value="" style="endArrow=oval;html=1;rounded=0;endFill=1;exitX=0.5;exitY=0;exitDx=0;exitDy=0;" parent="1" source="mXX0Gu69CXFKaSW1H1Vy-23" edge="1">
          <mxGeometry width="50" height="50" relative="1" as="geometry">
            <mxPoint x="243" y="240" as="sourcePoint" />
            <mxPoint x="453" y="200" as="targetPoint" />
          </mxGeometry>
        </mxCell>
        <mxCell id="mXX0Gu69CXFKaSW1H1Vy-25" value="&lt;font style=&quot;font-size: 15px;&quot;&gt;A-road&lt;/font&gt;" style="text;html=1;strokeColor=none;fillColor=none;align=center;verticalAlign=middle;whiteSpace=wrap;rounded=0;" parent="1" vertex="1">
          <mxGeometry x="387" y="60" width="80" height="30" as="geometry" />
        </mxCell>
        <mxCell id="mXX0Gu69CXFKaSW1H1Vy-26" value="" style="endArrow=oval;html=1;rounded=0;endFill=1;exitX=0.5;exitY=1;exitDx=0;exitDy=0;" parent="1" source="mXX0Gu69CXFKaSW1H1Vy-25" edge="1">
          <mxGeometry width="50" height="50" relative="1" as="geometry">
            <mxPoint x="493" y="245" as="sourcePoint" />
            <mxPoint x="413" y="120" as="targetPoint" />
          </mxGeometry>
        </mxCell>
      </root>
    </mxGraphModel>
  </diagram>
</mxfile>
